<svg version="1.1" viewBox="0.0 0.0 634.4278215223097 617.2519685039371" fill="none" stroke="none" stroke-linecap="square" stroke-miterlimit="10" xmlns:xlink="http://www.w3.org/1999/xlink" xmlns="http://www.w3.org/2000/svg"><clipPath id="p.0"><path d="m0 0l634.4278 0l0 617.25195l-634.4278 0l0 -617.25195z" clip-rule="nonzero"/></clipPath><g clip-path="url(#p.0)"><path fill="#000000" fill-opacity="0.0" d="m0 0l634.4278 0l0 617.25195l-634.4278 0z" fill-rule="evenodd"/><path fill="#000000" fill-opacity="0.0" d="m22.379265 111.31432l0 0c0 -54.278645 44.001534 -98.28018 98.28018 -98.28018l393.10892 0l0 0c26.065552 0 51.063477 10.354488 69.49457 28.785597c18.431152 18.43111 28.785645 43.42906 28.785645 69.49458l0 394.62073c0 54.278625 -44.001587 98.28021 -98.28021 98.28021l-393.10892 0c-54.27865 0 -98.28018 -44.001587 -98.28018 -98.28021z" fill-rule="evenodd"/><path stroke="#ffffff" stroke-width="24.0" stroke-linejoin="round" stroke-linecap="butt" d="m22.379265 111.31432l0 0c0 -54.278645 44.001534 -98.28018 98.28018 -98.28018l393.10892 0l0 0c26.065552 0 51.063477 10.354488 69.49457 28.785597c18.431152 18.43111 28.785645 43.42906 28.785645 69.49458l0 394.62073c0 54.278625 -44.001587 98.28021 -98.28021 98.28021l-393.10892 0c-54.27865 0 -98.28018 -44.001587 -98.28018 -98.28021z" fill-rule="evenodd"/><path fill="#ffffff" d="m284.27243 393.85904q0.515625 -31.0 7.03125 -48.96875q6.515625 -17.96875 26.56253 -39.84375l34.109375 -35.15625q21.875 -24.734375 21.875 -53.109375q0 -27.34375 -14.328125 -42.84375q-14.3125 -15.5 -41.65625 -15.5q-26.56253 0 -42.71878 14.0625q-16.140625 14.0625 -16.140625 37.765625l-48.17186 0q0.515625 -42.1875 30.078125 -68.09375q29.562485 -25.921875 76.95314 -25.921875q49.21875 0 76.6875 26.4375q27.484375 26.4375 27.484375 72.53125q0 45.5625 -42.1875 89.828125l-28.390625 28.125q-19.015625 21.09375 -19.015625 60.6875l-48.171906 0zm-2.078125 82.546875q0 -11.71875 7.15625 -19.65625q7.15625 -7.953125 21.21878 -7.953125q14.0625 0 21.359375 7.953125q7.296875 7.9375 7.296875 19.65625q0 11.71875 -7.296875 19.40625q-7.296875 7.671875 -21.359375 7.671875q-14.0625305 0 -21.21878 -7.671875q-7.15625 -7.6875 -7.15625 -19.40625z" fill-rule="nonzero"/></g></svg>