<svg version="1.1" viewBox="0.0 0.0 598.9475065616798 592.8477690288714" fill="none" stroke="none" stroke-linecap="square" stroke-miterlimit="10" xmlns:xlink="http://www.w3.org/1999/xlink" xmlns="http://www.w3.org/2000/svg"><clipPath id="p.0"><path d="m0 0l598.9475 0l0 592.8478l-598.9475 0l0 -592.8478z" clip-rule="nonzero"/></clipPath><g clip-path="url(#p.0)"><path fill="#000000" fill-opacity="0.0" d="m0 0l598.9475 0l0 592.8478l-598.9475 0z" fill-rule="evenodd"/><path fill="#7cb5ec" d="m4.6377954 99.11353l0 0c0 -54.27864 44.001537 -98.280174 98.28018 -98.280174l393.10895 0l0 0c26.06549 0 51.063477 10.354489 69.49457 28.785599c18.431091 18.43111 28.785583 43.429058 28.785583 69.49458l0 394.62076c0 54.278656 -44.001526 98.28018 -98.28015 98.28018l-393.10895 0c-54.278645 0 -98.28018 -44.001526 -98.28018 -98.28018z" fill-rule="evenodd"/><g filter="url(#shadowFilter-p.1)"><use xlink:href="#p.1" transform="matrix(1.0 0.0 0.0 1.0 0.0 2.0)"/></g><defs><filter id="shadowFilter-p.1" filterUnits="userSpaceOnUse"><feGaussianBlur in="SourceAlpha" stdDeviation="2.0" result="blur"/><feComponentTransfer in="blur" color-interpolation-filters="sRGB"><feFuncR type="linear" slope="0" intercept="0.0"/><feFuncG type="linear" slope="0" intercept="0.0"/><feFuncB type="linear" slope="0" intercept="0.0"/><feFuncA type="linear" slope="0.5" intercept="0"/></feComponentTransfer></filter></defs><g id="p.1"><path fill="#000000" fill-opacity="0.0" d="m59.204723 79.6063l480.53546 0l0 433.6378l-480.53546 0z" fill-rule="evenodd"/><path fill="#ffffff" d="m266.53094 381.65955q0.515625 -31.0 7.03125 -48.96875q6.515625 -17.96875 26.5625 -39.84375l34.109375 -35.15625q21.875 -24.734375 21.875 -53.109375q0 -27.34375 -14.328125 -42.84375q-14.3125 -15.5 -41.65625 -15.5q-26.5625 0 -42.71875 14.0625q-16.14061 14.0625 -16.14061 37.765625l-48.171875 0q0.515625 -42.1875 30.078125 -68.09375q29.5625 -25.921867 76.95311 -25.921867q49.21875 0 76.6875 26.437492q27.484375 26.4375 27.484375 72.53125q0 45.5625 -42.1875 89.828125l-28.390625 28.125q-19.015625 21.09375 -19.015625 60.6875l-48.171875 0zm-2.078125 82.546875q0 -11.71875 7.15625 -19.65625q7.15625 -7.953125 21.21875 -7.953125q14.0625 0 21.359375 7.953125q7.296875 7.9375 7.296875 19.65625q0 11.71875 -7.296875 19.40625q-7.296875 7.671875 -21.359375 7.671875q-14.0625 0 -21.21875 -7.671875q-7.15625 -7.6875 -7.15625 -19.40625z" fill-rule="nonzero"/></g></g></svg>